# xmcd
#
# Track frame offsets:
#	150
#	16852
#	32976
#	46872
#	58501
#	73697
#	88019
#	100940
#	112403
#	127096
#	136937
#	152235
#	164525
#
# Disc length: 2374 seconds
#
# Revision: 0
# Processed by: cddbd v1.5.2PL0 Copyright (c) Steve Scherf et al.
# Submitted via: EZCDAudioConverter 2.1.5.1
#
DISCID=b709440d
DTITLE=Vellamo
DYEAR=2013
DGENRE=
TTITLE0=Minne kulkee sinun matka
TTITLE1=Juokse Frank juokse
TTITLE2=Geordie
TTITLE3=Lovebirds
TTITLE4=Drifting away
TTITLE5=Silver dagger
TTITLE6=Ja se mies
TTITLE7=Elin i Hagen
TTITLE8=Come on
TTITLE9=Oman kullan silmät
TTITLE10=Suljen
TTITLE11=Kaipaava
TTITLE12=Maailma on kaunis
EXTD=
EXTT0=
EXTT1=
EXTT2=
EXTT3=
EXTT4=
EXTT5=
EXTT6=
EXTT7=
EXTT8=
EXTT9=
EXTT10=
EXTT11=
EXTT12=
PLAYORDER=
